<?xml version="1.0" encoding="utf-8"?>
<!-- Generator: Adobe Illustrator 24.1.2, SVG Export Plug-In . SVG Version: 6.00 Build 0)  -->
<svg version="1.1" id="Layer_1" xmlns="http://www.w3.org/2000/svg" xmlns:xlink="http://www.w3.org/1999/xlink" x="0px" y="0px"
	 viewBox="0 0 300 49" style="enable-background:new 0 0 300 49;" xml:space="preserve">
<style type="text/css">
	.st0{fill:#FFFFFF;}
</style>
<g>
	<path class="st0" d="M23,13.8c4.1,0,7.8,2.4,9.4,6.2l9.4-4.4C39,9.9,33.5,4.1,23,4.1C10.3,4.1,0.4,13,0.4,26c0,13.1,9.9,22,22.6,22
		c10.5,0,16.1-6,18.8-11.4l-9.4-4.4c-1.6,3.7-5.3,6.2-9.4,6.2c-6.6,0-11.5-5.3-11.5-12.3C11.5,19.1,16.4,13.8,23,13.8z"/>
	<path class="st0" d="M60.5,15.8c-0.3,0-0.5,0-0.8,0c-8.7,0.2-15.7,7.4-15.5,16.1c0,10,7.3,16.1,16.8,16.1c4.7,0,9.8-1.4,12.8-4.1
		l-4.1-6.1c-2.1,1.7-4.8,2.6-7.5,2.6c-4.6,0-7.2-2.6-7.8-5.5h21.8v-2.1C76.2,22.4,69.6,15.8,60.5,15.8z M54.3,28.6
		c0.4-3.1,3.1-5.4,6.3-5.3c4.5,0,6.1,3.1,6.4,5.3H54.3z"/>
	<path class="st0" d="M101.5,15.8c-4-0.1-7.9,1.5-10.6,4.5v-3.8h-9.8v30.7h9.8V27.4c1.4-1.9,3.6-3,6-3c3,0,5,1.3,5,5.1v17.7h9.8
		V25.5C111.6,19.8,108.5,15.8,101.5,15.8z"/>
	<path class="st0" d="M132.3,15.8c-5-0.1-10,1.6-13.9,4.8l3.5,6.2c2.4-2.1,5.5-3.2,8.7-3.2c3.9,0,6.2,1.8,6.2,4.5v3.9
		c-1.8-2.3-5.5-3.5-9.5-3.5c-4.7,0-10.5,2.2-10.5,9.6c0,6.9,5.8,10.1,10.5,10.1c3.9,0,7.6-1.5,9.5-3.8v3h9.8V28
		C146.6,18.5,139.7,15.8,132.3,15.8z M136.9,39.3c-1,1.5-3.3,2.2-5.5,2.2c-2.6,0-4.9-1.1-4.9-3.6c0-2.4,2.3-3.6,4.9-3.6
		c2.2,0,4.5,0.8,5.5,2.2V39.3z"/>
	<path class="st0" d="M163.5,20.4v-3.9h-9.8v30.7h9.8V27.8c1.3-1.8,4.6-2.9,7.2-2.9c0.8,0,1.6,0.1,2.4,0.3v-9.5
		C169.4,15.9,165.9,17.6,163.5,20.4z"/>
	<path class="st0" d="M182.5,1.5c-3.1,0-5.6,2.5-5.6,5.6c0,0,0,0,0,0.1c0,3.1,2.5,5.5,5.6,5.5c3.1,0,5.6-2.5,5.6-5.6
		S185.6,1.5,182.5,1.5z"/>
	<rect x="177.6" y="16.5" class="st0" width="9.8" height="30.7"/>
	<path class="st0" d="M209.2,15.8c-10.4,0-16.7,7.4-16.7,16.1S198.6,48,209.2,48c10.5,0,16.8-7.5,16.8-16.2S219.6,15.8,209.2,15.8z
		 M209.2,39.3c-4.2,0-6.6-3.4-6.6-7.5s2.3-7.4,6.6-7.4s6.7,3.4,6.7,7.4C215.9,36,213.4,39.3,209.2,39.3z"/>
	<path class="st0" d="M285.1,17.2c0-7.8-5.6-12.4-12.9-12.4h-9.4h-4.2l-15.4,38.3L227.7,4.8h-4.2l17.3,42.4h0.9h3.1h0.5l7.2-17.5
		h16.7l11.9,17.5h4.4l-12.3-17.8C279.6,29.2,285.1,25,285.1,17.2z M253.9,26.4l7.5-18.2h10.5c5.6,0,9.4,3.7,9.4,9.1
		c0,5.3-3.8,9.1-9.4,9.1H253.9z"/>
	<path class="st0" d="M298.8,4.1c-0.5-1-1.3-1.7-2.3-2.3c-0.9-0.5-1.9-0.8-3-0.8c-1.1,0-2.2,0.3-3.1,0.8c-1,0.5-1.8,1.3-2.3,2.3
		c-1.1,1.9-1.1,4.3,0,6.2c0.5,1,1.3,1.8,2.3,2.3c0.9,0.5,2,0.8,3.1,0.8c1.1,0,2.1-0.3,3.1-0.8c1-0.5,1.7-1.3,2.3-2.3
		c0.5-0.9,0.8-2,0.8-3.1C299.6,6.1,299.3,5.1,298.8,4.1z M297.8,9.7c-0.4,0.8-1.1,1.4-1.8,1.8c-1.5,0.9-3.4,0.9-4.9,0
		c-0.8-0.4-1.4-1.1-1.8-1.8c-0.4-0.8-0.6-1.6-0.6-2.5c0-0.9,0.2-1.7,0.7-2.5c0.4-0.8,1.1-1.4,1.8-1.8c0.7-0.4,1.6-0.6,2.4-0.6h0
		c0.9,0,1.7,0.2,2.4,0.6c0.8,0.4,1.4,1.1,1.8,1.8C298.6,6.3,298.6,8.1,297.8,9.7z"/>
	<path class="st0" d="M295.1,8.4c-0.1-0.2-0.3-0.3-0.4-0.5c-0.1-0.1-0.3-0.2-0.5-0.2c0.5,0,1-0.3,1.3-0.6c0.3-0.3,0.4-0.7,0.4-1.2
		c0-0.3-0.1-0.7-0.2-0.9c-0.1-0.3-0.4-0.5-0.6-0.6c-0.3-0.2-0.7-0.2-1-0.3h-3.4v6.5h1.3V7.8h0.3c0.3,0,0.7,0.1,0.9,0.3
		c0.4,0.4,0.7,0.8,0.9,1.3l0.5,1.1h1.6l-0.8-1.3C295.3,8.7,295.2,8.4,295.1,8.4z M294,6.7c-0.5,0.1-1,0.1-1.5,0.1H292V5h0.5
		c0.5,0,1,0,1.5,0.1c0.2,0.1,0.3,0.2,0.5,0.3c0.1,0.1,0.2,0.3,0.2,0.5c0,0.2-0.1,0.4-0.2,0.5C294.3,6.5,294.2,6.6,294,6.7z"/>
</g>
</svg>
