<?xml version="1.0" encoding="utf-8"?>
<!-- Generator: Adobe Illustrator 24.1.0, SVG Export Plug-In . SVG Version: 6.00 Build 0)  -->
<svg version="1.1" id="Layer_1" xmlns="http://www.w3.org/2000/svg" xmlns:xlink="http://www.w3.org/1999/xlink" x="0px" y="0px"
	 viewBox="0 0 181 181" style="enable-background:new 0 0 181 181;" xml:space="preserve">
<g>
	<g>
		<path d="M90.5,27.6c34.7,0,62.9,28.2,62.9,62.9s-28.2,62.9-62.9,62.9s-62.9-28.2-62.9-62.9S55.8,27.6,90.5,27.6
			 M90.5,14.5c-42,0-76,34-76,76s34,76,76,76s76-34,76-76S132.5,14.5,90.5,14.5L90.5,14.5z"/>
	</g>
	<polygon points="91.1,57.2 53.8,83.6 65.9,83.6 65.9,123.8 83.7,123.8 83.7,103.5 98.3,103.5 98.3,123.8 116.2,123.8 
		116.2,83.6 127.2,83.6 	"/>
</g>
</svg>
