<?xml version="1.0" encoding="utf-8"?>
<!-- Generator: Adobe Illustrator 24.1.0, SVG Export Plug-In . SVG Version: 6.00 Build 0)  -->
<svg version="1.1" id="Layer_1" xmlns="http://www.w3.org/2000/svg" xmlns:xlink="http://www.w3.org/1999/xlink" x="0px" y="0px"
	 viewBox="0 0 181 181" style="enable-background:new 0 0 181 181;" xml:space="preserve">
<g>
	<g>
		<path d="M60.3,62.1L48.9,50.7V81h30.2L67.8,69.6c12.5-12.5,32.8-12.5,45.3,0c3.8,3.8,6.5,8.4,7.9,13.2l11,0
			c-1.7-7.6-5.5-14.8-11.4-20.8C104,45.4,77,45.4,60.3,62.1z"/>
		<path d="M113.2,111.4c-12.5,12.5-32.8,12.5-45.3,0c-3.8-3.8-6.5-8.4-7.9-13.2h-11c1.7,7.6,5.5,14.8,11.4,20.8
			c16.7,16.7,43.8,16.7,60.5,0l11.3,11.3V100h-30.2L113.2,111.4z"/>
	</g>
	<g>
		<path d="M90.5,27.6c34.7,0,62.9,28.2,62.9,62.9s-28.2,62.9-62.9,62.9s-62.9-28.2-62.9-62.9S55.8,27.6,90.5,27.6
			 M90.5,14.5c-42,0-76,34-76,76s34,76,76,76s76-34,76-76S132.5,14.5,90.5,14.5L90.5,14.5z"/>
	</g>
</g>
</svg>
